<svg xmlns="http://www.w3.org/2000/svg" viewBox="0 0 737.68 151.86"><defs><style>.cls-1{fill:#fff;}</style></defs><title>brand-sciencelogic-logo-white-rgb</title><g id="Layer_2" data-name="Layer 2"><path class="cls-1" d="M192.87,54.26c-3.11-5.22-7.11-7.89-13.44-7.89-6.67,0-14,4.56-14,11.89,0,6.55,6.44,10,11.66,12l6,2.33c11.89,4.67,20.78,11.22,20.78,25.22,0,15.22-11.78,26.1-26.78,26.1-13.55,0-24.11-10-25.88-23.44l10.55-2.22c-.11,9.22,7.22,15.89,16.22,15.89s15.44-7.55,15.44-16.33c0-9-7.22-12.89-14.44-15.89l-5.78-2.44C163.65,75.37,155,69.92,155,58.26c0-13.55,12-21.67,24.67-21.67A23.9,23.9,0,0,1,201.2,49.26Z" transform="translate(-0.05 -0.05)"/><path class="cls-1" d="M252.41,84.92a19.09,19.09,0,0,0-14.89-7c-9.78,0-17.33,8.67-17.33,18.22,0,10.66,7.44,18.44,18,18.44,5.77,0,10.44-2.66,14.22-6.88v12.77a29,29,0,0,1-14.33,3.44c-15.34,0-27.89-11.77-27.89-27.32,0-16.11,12.44-28,28.44-28A28.21,28.21,0,0,1,252.41,72Z" transform="translate(-0.05 -0.05)"/><path class="cls-1" d="M277.29,46.37a6.89,6.89,0,0,1-13.78,0,6.89,6.89,0,1,1,13.78,0Zm-1.89,75.77h-10v-52h10Z" transform="translate(-0.05 -0.05)"/><path class="cls-1" d="M297.39,97.81c.11,8.88,6.11,17.22,15.67,17.22,7.66,0,11.77-3.89,15.55-10.11l8.44,4.77A27,27,0,0,1,313,123.91c-15.89,0-25.56-12-25.56-27.32,0-16,8.56-28,25.33-28,16.56,0,24.33,12.22,24.33,27.66v1.56Zm29.67-7.56c-1.23-7.77-6.34-13-14.34-13-7.77,0-13.55,5.55-14.77,13Z" transform="translate(-0.05 -0.05)"/><path class="cls-1" d="M355.6,77.14h.22c3.11-5.55,9.33-8.55,15.67-8.55,14.66,0,18.44,9.89,18.44,22.55v31h-10V92.37c0-8.89-1.22-14.89-11.44-14.89-12.89,0-12.89,11.33-12.89,20.77v23.89h-10v-52h10Z" transform="translate(-0.05 -0.05)"/><path class="cls-1" d="M441.91,84.92a19.07,19.07,0,0,0-14.88-7c-9.78,0-17.33,8.67-17.33,18.22,0,10.66,7.44,18.44,18,18.44,5.77,0,10.44-2.66,14.21-6.88v12.77a29,29,0,0,1-14.33,3.44c-15.33,0-27.88-11.77-27.88-27.32,0-16.11,12.44-28,28.44-28A28.2,28.2,0,0,1,441.91,72Z" transform="translate(-0.05 -0.05)"/><path class="cls-1" d="M458.69,97.81c.11,8.88,6.1,17.22,15.66,17.22,7.66,0,11.78-3.89,15.55-10.11l8.44,4.77a27,27,0,0,1-24.1,14.22c-15.89,0-25.55-12-25.55-27.32,0-16,8.55-28,25.33-28,16.55,0,24.32,12.22,24.32,27.66v1.56Zm29.66-7.56c-1.23-7.77-6.34-13-14.33-13-7.78,0-13.56,5.55-14.78,13Z" transform="translate(-0.05 -0.05)"/><path class="cls-1" d="M518.45,112.58h25.44v9.56H508V38.37h10.45Z" transform="translate(-0.05 -0.05)"/><path class="cls-1" d="M600.54,96.25a27.78,27.78,0,1,1-27.77-27.66A27.34,27.34,0,0,1,600.54,96.25Zm-45.55,0a17.78,17.78,0,1,0,17.78-18.11A18,18,0,0,0,555,96.25Z" transform="translate(-0.05 -0.05)"/><path class="cls-1" d="M658.31,121.14c0,17.88-5.12,30.77-25.33,30.77-14.45,0-24.89-8.89-25.11-23.55h10c0,9.33,6.44,14.66,15.55,14.66,12.33,0,14.89-8.44,14.89-19.11V114h-.22c-4,5.89-10.34,9.88-17.67,9.88-16,0-24.89-13.21-24.89-28.1,0-14.22,9.45-27.22,24.45-27.22,7.77,0,14,4,18.11,10.44h.22V70.15h10Zm-9.45-25c0-10.11-6.11-18.66-16.88-18.66-10.34,0-16.45,9-16.45,18.66S621.42,115,632,115C642.86,115,648.86,106.36,648.86,96.14Z" transform="translate(-0.05 -0.05)"/><path class="cls-1" d="M685.41,46.37a6.89,6.89,0,0,1-13.78,0,6.89,6.89,0,1,1,13.78,0Zm-1.9,75.77h-10v-52h10Z" transform="translate(-0.05 -0.05)"/><path class="cls-1" d="M737.73,84.92a19.09,19.09,0,0,0-14.89-7c-9.77,0-17.33,8.67-17.33,18.22,0,10.66,7.44,18.44,18,18.44,5.78,0,10.44-2.66,14.22-6.88v12.77a29,29,0,0,1-14.33,3.44c-15.33,0-27.89-11.77-27.89-27.32,0-16.11,12.45-28,28.44-28A28.21,28.21,0,0,1,737.73,72Z" transform="translate(-0.05 -0.05)"/><path class="cls-1" d="M15.27,116.23a7.61,7.61,0,1,1-7.62-7.62A7.61,7.61,0,0,1,15.27,116.23Z" transform="translate(-0.05 -0.05)"/><path class="cls-1" d="M70.48,123.83a7.61,7.61,0,1,1,7.61-7.6A7.61,7.61,0,0,1,70.48,123.83Z" transform="translate(-0.05 -0.05)"/><path class="cls-1" d="M62.87,98.13a7.61,7.61,0,1,1,7.61,7.61A7.61,7.61,0,0,1,62.87,98.13Z" transform="translate(-0.05 -0.05)"/><path class="cls-1" d="M91.42,123.83a7.61,7.61,0,1,1,7.62-7.6A7.62,7.62,0,0,1,91.42,123.83Z" transform="translate(-0.05 -0.05)"/><path class="cls-1" d="M83.81,98.13a7.62,7.62,0,1,1,7.61,7.61A7.62,7.62,0,0,1,83.81,98.13Z" transform="translate(-0.05 -0.05)"/><path class="cls-1" d="M91.42,87.64A7.61,7.61,0,1,1,99,80,7.61,7.61,0,0,1,91.42,87.64Z" transform="translate(-0.05 -0.05)"/><path class="cls-1" d="M28.6,123.83a7.61,7.61,0,1,1,7.61-7.6A7.61,7.61,0,0,1,28.6,123.83Z" transform="translate(-0.05 -0.05)"/><path class="cls-1" d="M21,98.13a7.61,7.61,0,1,1,7.61,7.61A7.61,7.61,0,0,1,21,98.13Z" transform="translate(-0.05 -0.05)"/><path class="cls-1" d="M28.6,87.64A7.61,7.61,0,1,1,36.21,80,7.61,7.61,0,0,1,28.6,87.64Z" transform="translate(-0.05 -0.05)"/><path class="cls-1" d="M49.54,123.83a7.61,7.61,0,1,1,7.61-7.6A7.61,7.61,0,0,1,49.54,123.83Z" transform="translate(-0.05 -0.05)"/><path class="cls-1" d="M41.93,98.13a7.61,7.61,0,1,1,7.61,7.61A7.61,7.61,0,0,1,41.93,98.13Z" transform="translate(-0.05 -0.05)"/><path class="cls-1" d="M49.54,87.64A7.61,7.61,0,1,1,57.15,80,7.6,7.6,0,0,1,49.54,87.64Z" transform="translate(-0.05 -0.05)"/><path class="cls-1" d="M49.54,69.55A7.61,7.61,0,1,1,57.15,62,7.61,7.61,0,0,1,49.54,69.55Z" transform="translate(-0.05 -0.05)"/><path class="cls-1" d="M112.36,123.83a7.61,7.61,0,1,1,7.61-7.6A7.61,7.61,0,0,1,112.36,123.83Z" transform="translate(-0.05 -0.05)"/><path class="cls-1" d="M104.75,98.13a7.61,7.61,0,1,1,7.61,7.61A7.61,7.61,0,0,1,104.75,98.13Z" transform="translate(-0.05 -0.05)"/><path class="cls-1" d="M112.36,87.64A7.61,7.61,0,1,1,120,80,7.61,7.61,0,0,1,112.36,87.64Z" transform="translate(-0.05 -0.05)"/><path class="cls-1" d="M112.36,69.55A7.61,7.61,0,1,1,120,62,7.61,7.61,0,0,1,112.36,69.55Z" transform="translate(-0.05 -0.05)"/><path class="cls-1" d="M120,43.85a7.61,7.61,0,1,1-7.61-7.62A7.61,7.61,0,0,1,120,43.85Z" transform="translate(-0.05 -0.05)"/><path class="cls-1" d="M140.91,116.23a7.61,7.61,0,1,1-7.6-7.62A7.6,7.6,0,0,1,140.91,116.23Z" transform="translate(-0.05 -0.05)"/><path class="cls-1" d="M133.31,105.74a7.61,7.61,0,1,1,7.6-7.61A7.61,7.61,0,0,1,133.31,105.74Z" transform="translate(-0.05 -0.05)"/><path class="cls-1" d="M133.31,87.64a7.61,7.61,0,1,1,7.6-7.6A7.61,7.61,0,0,1,133.31,87.64Z" transform="translate(-0.05 -0.05)"/><path class="cls-1" d="M133.31,69.55a7.61,7.61,0,1,1,7.6-7.6A7.61,7.61,0,0,1,133.31,69.55Z" transform="translate(-0.05 -0.05)"/><path class="cls-1" d="M133.31,51.46a7.62,7.62,0,1,1,7.6-7.61A7.61,7.61,0,0,1,133.31,51.46Z" transform="translate(-0.05 -0.05)"/><path class="cls-1" d="M133.31,33.37a7.61,7.61,0,1,1,7.6-7.61A7.61,7.61,0,0,1,133.31,33.37Z" transform="translate(-0.05 -0.05)"/><path class="cls-1" d="M140.91,7.65a7.61,7.61,0,1,1-7.6-7.6A7.6,7.6,0,0,1,140.91,7.65Z" transform="translate(-0.05 -0.05)"/></g></svg>